<svg width="1600" height="900" viewBox="0 0 1600 900" fill="none" xmlns="http://www.w3.org/2000/svg">
  <rect width="1600" height="900" fill="#020617"/>
  <radialGradient id="g" cx="0" cy="0" r="1" gradientUnits="userSpaceOnUse" gradientTransform="translate(1180 180) rotate(135) scale(920 620)">
    <stop stop-color="#0ea5e9" stop-opacity="0.45"/>
    <stop offset="1" stop-color="#020617" stop-opacity="0"/>
  </radialGradient>
  <rect width="1600" height="900" fill="url(#g)"/>
  <g opacity="0.24">
    <path d="M0 160H1600M0 320H1600M0 480H1600M0 640H1600M0 800H1600" stroke="#94a3b8"/>
    <path d="M160 0V900M320 0V900M480 0V900M640 0V900M800 0V900M960 0V900M1120 0V900M1280 0V900M1440 0V900" stroke="#94a3b8"/>
  </g>
  <rect x="110" y="105" width="1380" height="690" rx="44" fill="#020617" fill-opacity="0.82" stroke="#0ea5e9" stroke-opacity="0.48" stroke-width="2"/>
  <circle cx="1290" cy="225" r="92" fill="#0ea5e9" fill-opacity="0.13"/>
  <circle cx="1290" cy="225" r="46" fill="#0ea5e9" fill-opacity="0.25"/>
  <text x="160" y="275" fill="#94a3b8" font-size="34" font-family="Arial, Helvetica, sans-serif" font-weight="800">PROJET CYBERSÉCURITÉ</text>
  <text x="160" y="405" fill="#ffffff" font-size="94" font-family="Arial, Helvetica, sans-serif" font-weight="900">Gestion des secrets</text>
  <text x="160" y="500" fill="#cbd5e1" font-size="50" font-family="Arial, Helvetica, sans-serif" font-weight="800">Gestionnaire de mots de passe Docker</text>
  <rect x="160" y="585" width="920" height="78" rx="24" fill="#0f172a" stroke="#334155"/>
  <text x="200" y="637" fill="#e2e8f0" font-size="34" font-family="Arial, Helvetica, sans-serif" font-weight="700">Docker • TLS • Sauvegarde • Reverse-proxy</text>
  <text x="160" y="720" fill="#0ea5e9" font-size="32" font-family="Arial, Helvetica, sans-serif" font-weight="800">Alix Marchal • Infrastructure • Réseau • Cybersécurité</text>
</svg>
